<?xml version="1.0" encoding="utf-8"?>
<!-- Generator: Adobe Illustrator 26.5.0, SVG Export Plug-In . SVG Version: 6.00 Build 0)  -->
<svg version="1.1" id="Capa_1" xmlns="http://www.w3.org/2000/svg" xmlns:xlink="http://www.w3.org/1999/xlink" x="0px" y="0px"
	 viewBox="0 0 1569.1 901.2" style="enable-background:new 0 0 1569.1 901.2;" xml:space="preserve">
<style type="text/css">
	.st0{fill:none;stroke:#FFFFFF;stroke-width:2;stroke-miterlimit:10;}
</style>
<polyline class="st0" points="521.4,899.6 0,-0.8 1569.1,899.6 1046.2,-0.8 "/>
<polyline class="st0" points="520.6,0 0,899.6 1569.1,-0.8 1046.2,899.6 "/>
<polyline class="st0" points="1311.5,899.6 1569.1,447.3 1311.5,0 "/>
<polyline class="st0" points="-1.8,449.4 784.5,899.6 1569.1,447.3 784.5,-4.7 -1.8,449.4 255.6,-0.8 "/>
<polyline class="st0" points="1569.1,-0.8 0,-0.8 0,899.6 1569.1,901.2 "/>
<line class="st0" x1="-3.3" y1="110.1" x2="1569.1" y2="110.1"/>
<line class="st0" x1="-1.7" y1="221" x2="1569.1" y2="221"/>
<line class="st0" x1="0" y1="333.6" x2="1569.1" y2="335.2"/>
<line class="st0" x1="0" y1="447.3" x2="1569.1" y2="448.9"/>
<line class="st0" x1="0" y1="560.3" x2="1569.1" y2="561.9"/>
<line class="st0" x1="0" y1="675" x2="1569.1" y2="676.6"/>
<line class="st0" x1="0" y1="789.9" x2="1569.1" y2="791.5"/>
<line class="st0" x1="1569.1" y1="0" x2="1569.1" y2="900.4"/>
<line class="st0" x1="1311.5" y1="0" x2="1311.5" y2="900.4"/>
<line class="st0" x1="1046.2" y1="0" x2="1046.2" y2="900.4"/>
<line class="st0" x1="783.3" y1="0" x2="783.3" y2="900.4"/>
<line class="st0" x1="520.6" y1="0" x2="520.6" y2="900.4"/>
<line class="st0" x1="255.6" y1="0" x2="255.6" y2="900.4"/>
</svg>
